<?xml version="1.0" encoding="UTF-8" standalone="no"?>
<!DOCTYPE svg PUBLIC "-//W3C//DTD SVG 1.1//EN" "http://www.w3.org/Graphics/SVG/1.1/DTD/svg11.dtd">
<svg width="100%" height="100%" viewBox="0 0 300 300" version="1.1" xmlns="http://www.w3.org/2000/svg" xmlns:xlink="http://www.w3.org/1999/xlink" xml:space="preserve" xmlns:serif="http://www.serif.com/" style="fill-rule:evenodd;clip-rule:evenodd;stroke-linecap:round;stroke-linejoin:round;stroke-miterlimit:1.5;">
    <g transform="matrix(-0.706579,-0.707634,0.707634,-0.706579,133.213,345.156)">
        <circle cx="215.11" cy="147.303" r="3.112" style="fill:white;stroke:black;stroke-opacity:0.219608;stroke-width:1.58px;"/>
    </g>
    <g transform="matrix(0.968748,-0.96588,0.706058,0.708154,-200.536,187.053)">
        <path d="M198.873,135.527L204.021,153.546L193.725,153.546L198.873,135.527Z" style="fill:white;stroke:black;stroke-opacity:0.219608;stroke-width:1.32px;"/>
    </g>
    <g transform="matrix(-0.973772,0.972741,-1.09104,-1.0922,442.315,36.9831)">
        <path d="M243.448,124.858C243.51,124.453 243.542,124.047 243.542,123.64C243.542,114.573 228.31,107.212 209.548,107.212C190.787,107.212 175.555,114.573 175.555,123.64C175.555,124.047 175.586,124.453 175.648,124.858L243.448,124.858Z" style="fill:white;stroke:black;stroke-opacity:0.219608;stroke-width:1.08px;"/>
    </g>
    <g transform="matrix(-0.706579,-0.707634,0.707634,-0.706579,133.213,345.156)">
        <rect x="153.494" y="134.832" width="8.236" height="0.248" style="fill:white;stroke:black;stroke-opacity:0.219608;stroke-width:1.58px;"/>
    </g>
    <g transform="matrix(-0.706579,-0.707634,0.707634,-0.706579,135.336,343.036)">
        <rect x="153.494" y="134.832" width="8.236" height="0.248" style="fill:white;stroke:black;stroke-opacity:0.219608;stroke-width:1.58px;"/>
    </g>
    <g transform="matrix(-0.706579,-0.707634,0.707634,-0.706579,133.213,345.156)">
        <rect x="162.028" y="132.448" width="3.87" height="30.961" style="fill:white;stroke:black;stroke-opacity:0.219608;stroke-width:1.58px;"/>
    </g>
    <g transform="matrix(-0.706579,-0.707634,0.707634,-0.706579,133.213,345.156)">
        <rect x="145.01" y="127.039" width="4.168" height="0.099" style="fill:white;stroke:black;stroke-opacity:0.219608;stroke-width:1.58px;"/>
    </g>
    <g transform="matrix(-0.706579,-0.707634,0.72311,-0.722032,130.598,347.768)">
        <rect x="149.128" y="128.181" width="0.05" height="40.838" style="fill:white;stroke:black;stroke-opacity:0.219608;stroke-width:1.57px;"/>
    </g>
    <g transform="matrix(-0.706579,-0.707634,0.707634,-0.706579,133.213,345.156)">
        <rect x="144.762" y="168.671" width="4.466" height="0.447" style="fill:white;stroke:black;stroke-opacity:0.219608;stroke-width:1.58px;"/>
    </g>
    <g transform="matrix(-0.706579,-0.707634,0.707634,-0.706579,133.213,345.156)">
        <rect x="149.178" y="129.967" width="4.217" height="12.355" style="fill:white;stroke:black;stroke-opacity:0.219608;stroke-width:1.58px;"/>
    </g>
    <g transform="matrix(-0.706579,-0.707634,0.707634,-0.706579,150.196,328.198)">
        <rect x="149.178" y="129.967" width="4.217" height="12.355" style="fill:white;stroke:black;stroke-opacity:0.219608;stroke-width:1.58px;"/>
    </g>
    <g transform="matrix(-0.706579,-0.707634,0.707634,-0.706579,149.489,328.905)">
        <rect x="153.494" y="134.832" width="8.236" height="0.248" style="fill:white;stroke:black;stroke-opacity:0.219608;stroke-width:1.58px;"/>
    </g>
    <g transform="matrix(-0.706579,-0.707634,0.707634,-0.706579,151.612,326.785)">
        <rect x="153.494" y="134.832" width="8.236" height="0.248" style="fill:white;stroke:black;stroke-opacity:0.219608;stroke-width:1.58px;"/>
    </g>
    <g transform="matrix(-0.706579,-0.707634,0.707634,-0.706579,186.47,292.016)">
        <rect x="122.355" y="105.321" width="3.074" height="9.349" style="fill:white;stroke:black;stroke-opacity:0.219608;stroke-width:1.58px;"/>
    </g>
    <g transform="matrix(-0.706579,-0.707634,0.707634,-0.706579,133.213,345.156)">
        <rect x="120.807" y="116.243" width="6.163" height="5.078" style="fill:white;stroke:black;stroke-opacity:0.219608;stroke-width:1.58px;"/>
    </g>
    <g transform="matrix(-0.706579,-0.707634,0.707634,-0.706579,173.969,304.39)">
        <rect x="120.807" y="116.243" width="6.163" height="5.078" style="fill:white;stroke:black;stroke-opacity:0.219608;stroke-width:1.58px;"/>
    </g>
    <g transform="matrix(-0.706579,-0.707634,0.707634,-0.706579,133.213,345.156)">
        <rect x="122.355" y="105.321" width="3.074" height="9.349" style="fill:white;stroke:black;stroke-opacity:0.219608;stroke-width:1.58px;"/>
    </g>
    <g transform="matrix(-0.941377,0.945568,-0.776166,-0.772725,372.567,162.476)">
        <path d="M131.499,132.349L94.383,132.349L100.053,123.033L125.829,123.033L131.499,132.349Z" style="fill:white;stroke:black;stroke-opacity:0.219608;stroke-width:1.3px;"/>
    </g>
    <g transform="matrix(0.959999,-0.966424,0.406,0.403302,13.2014,233.864)">
        <path d="M131.499,132.349L94.383,132.349L100.053,123.033L125.829,123.033L131.499,132.349Z" style="fill:white;stroke:black;stroke-opacity:0.219608;stroke-width:1.51px;"/>
    </g>
    <g transform="matrix(0.305994,-0.30804,0.416665,0.413896,80.9538,172.134)">
        <path d="M131.499,132.349L94.383,132.349L103.662,123.033L122.22,123.033L131.499,132.349Z" style="fill:white;stroke:black;stroke-opacity:0.219608;stroke-width:3.06px;"/>
    </g>
    <g transform="matrix(0.305994,-0.30804,0.416665,0.413896,99.3528,153.763)">
        <path d="M131.499,132.349L94.383,132.349L103.662,123.033L122.22,123.033L131.499,132.349Z" style="fill:white;stroke:black;stroke-opacity:0.219608;stroke-width:3.06px;"/>
    </g>
    <g id="电池板组" transform="matrix(1,0,0,1.00148,-2,-174.281)">
        <g transform="matrix(-0.706579,-0.706588,0.708681,-0.706579,13.2994,643.044)">
            <rect x="110.058" y="189.427" width="31.94" height="87.687" style="fill:white;stroke:black;stroke-width:1px;stroke-linecap:butt;stroke-miterlimit:1.41421;"/>
        </g>
        <g id="电池板" transform="matrix(-0.706579,-0.706588,0.707632,-0.705533,135.213,518.67)">
            <g transform="matrix(0.828201,0,0,0.736575,19.9343,6.75602)">
                <rect x="113.307" y="25.647" width="1.817" height="2.271" style="fill:white;stroke:black;stroke-opacity:0.219608;stroke-width:2.02px;"/>
            </g>
            <g transform="matrix(0.828201,0,0,0.736575,24.9343,6.75602)">
                <rect x="113.307" y="25.647" width="1.817" height="2.271" style="fill:white;stroke:black;stroke-opacity:0.219608;stroke-width:2.02px;"/>
            </g>
            <g transform="matrix(0.828201,0,0,0.736575,29.9343,6.75602)">
                <rect x="113.307" y="25.647" width="1.817" height="2.271" style="fill:white;stroke:black;stroke-opacity:0.219608;stroke-width:2.02px;"/>
            </g>
            <g transform="matrix(0.828201,0,0,0.736575,19.9343,11.756)">
                <rect x="113.307" y="25.647" width="1.817" height="2.271" style="fill:white;stroke:black;stroke-opacity:0.219608;stroke-width:2.02px;"/>
            </g>
            <g transform="matrix(0.828201,0,0,0.736575,34.9343,6.75602)">
                <rect x="113.307" y="25.647" width="1.817" height="2.271" style="fill:white;stroke:black;stroke-opacity:0.219608;stroke-width:2.02px;"/>
            </g>
            <g transform="matrix(0.828201,0,0,0.736575,39.9343,6.75602)">
                <rect x="113.307" y="25.647" width="1.817" height="2.271" style="fill:white;stroke:black;stroke-opacity:0.219608;stroke-width:2.02px;"/>
            </g>
            <g transform="matrix(0.828201,0,0,0.736575,39.9343,11.756)">
                <rect x="113.307" y="25.647" width="1.817" height="2.271" style="fill:white;stroke:black;stroke-opacity:0.219608;stroke-width:2.02px;"/>
            </g>
            <g transform="matrix(0.828201,0,0,0.736575,39.9343,16.756)">
                <rect x="113.307" y="25.647" width="1.817" height="2.271" style="fill:white;stroke:black;stroke-opacity:0.219608;stroke-width:2.02px;"/>
            </g>
            <g transform="matrix(0.828201,0,0,0.736575,39.9343,21.756)">
                <rect x="113.307" y="25.647" width="1.817" height="2.271" style="fill:white;stroke:black;stroke-opacity:0.219608;stroke-width:2.02px;"/>
            </g>
            <g transform="matrix(0.828201,0,0,0.736575,34.9343,11.756)">
                <rect x="113.307" y="25.647" width="1.817" height="2.271" style="fill:white;stroke:black;stroke-opacity:0.219608;stroke-width:2.02px;"/>
            </g>
            <g transform="matrix(0.828201,0,0,0.736575,29.9343,11.756)">
                <rect x="113.307" y="25.647" width="1.817" height="2.271" style="fill:white;stroke:black;stroke-opacity:0.219608;stroke-width:2.02px;"/>
            </g>
            <g transform="matrix(0.828201,0,0,0.736575,24.9343,11.756)">
                <rect x="113.307" y="25.647" width="1.817" height="2.271" style="fill:white;stroke:black;stroke-opacity:0.219608;stroke-width:2.02px;"/>
            </g>
            <g transform="matrix(0.828201,0,0,0.736575,34.9343,16.756)">
                <rect x="113.307" y="25.647" width="1.817" height="2.271" style="fill:white;stroke:black;stroke-opacity:0.219608;stroke-width:2.02px;"/>
            </g>
            <g transform="matrix(0.828201,0,0,0.736575,29.9343,16.756)">
                <rect x="113.307" y="25.647" width="1.817" height="2.271" style="fill:white;stroke:black;stroke-opacity:0.219608;stroke-width:2.02px;"/>
            </g>
            <g transform="matrix(0.828201,0,0,0.736575,24.9343,16.756)">
                <rect x="113.307" y="25.647" width="1.817" height="2.271" style="fill:white;stroke:black;stroke-opacity:0.219608;stroke-width:2.02px;"/>
            </g>
            <g transform="matrix(0.828201,0,0,0.736575,19.9343,16.756)">
                <rect x="113.307" y="25.647" width="1.817" height="2.271" style="fill:white;stroke:black;stroke-opacity:0.219608;stroke-width:2.02px;"/>
            </g>
            <g transform="matrix(0.828201,0,0,0.736575,19.9343,21.756)">
                <rect x="113.307" y="25.647" width="1.817" height="2.271" style="fill:white;stroke:black;stroke-opacity:0.219608;stroke-width:2.02px;"/>
            </g>
            <g transform="matrix(0.828201,0,0,0.736575,24.9343,21.756)">
                <rect x="113.307" y="25.647" width="1.817" height="2.271" style="fill:white;stroke:black;stroke-opacity:0.219608;stroke-width:2.02px;"/>
            </g>
            <g transform="matrix(0.828201,0,0,0.736575,29.9343,21.756)">
                <rect x="113.307" y="25.647" width="1.817" height="2.271" style="fill:white;stroke:black;stroke-opacity:0.219608;stroke-width:2.02px;"/>
            </g>
            <g transform="matrix(0.828201,0,0,0.736575,34.9343,21.756)">
                <rect x="113.307" y="25.647" width="1.817" height="2.271" style="fill:white;stroke:black;stroke-opacity:0.219608;stroke-width:2.02px;"/>
            </g>
        </g>
        <g id="电池板1" serif:id="电池板" transform="matrix(-0.706579,-0.706588,0.707632,-0.705533,155.026,498.915)">
            <g transform="matrix(0.828201,0,0,0.736575,19.9343,6.75602)">
                <rect x="113.307" y="25.647" width="1.817" height="2.271" style="fill:white;stroke:black;stroke-opacity:0.219608;stroke-width:2.02px;"/>
            </g>
            <g transform="matrix(0.828201,0,0,0.736575,24.9343,6.75602)">
                <rect x="113.307" y="25.647" width="1.817" height="2.271" style="fill:white;stroke:black;stroke-opacity:0.219608;stroke-width:2.02px;"/>
            </g>
            <g transform="matrix(0.828201,0,0,0.736575,29.9343,6.75602)">
                <rect x="113.307" y="25.647" width="1.817" height="2.271" style="fill:white;stroke:black;stroke-opacity:0.219608;stroke-width:2.02px;"/>
            </g>
            <g transform="matrix(0.828201,0,0,0.736575,19.9343,11.756)">
                <rect x="113.307" y="25.647" width="1.817" height="2.271" style="fill:white;stroke:black;stroke-opacity:0.219608;stroke-width:2.02px;"/>
            </g>
            <g transform="matrix(0.828201,0,0,0.736575,34.9343,6.75602)">
                <rect x="113.307" y="25.647" width="1.817" height="2.271" style="fill:white;stroke:black;stroke-opacity:0.219608;stroke-width:2.02px;"/>
            </g>
            <g transform="matrix(0.828201,0,0,0.736575,39.9343,6.75602)">
                <rect x="113.307" y="25.647" width="1.817" height="2.271" style="fill:white;stroke:black;stroke-opacity:0.219608;stroke-width:2.02px;"/>
            </g>
            <g transform="matrix(0.828201,0,0,0.736575,39.9343,11.756)">
                <rect x="113.307" y="25.647" width="1.817" height="2.271" style="fill:white;stroke:black;stroke-opacity:0.219608;stroke-width:2.02px;"/>
            </g>
            <g transform="matrix(0.828201,0,0,0.736575,39.9343,16.756)">
                <rect x="113.307" y="25.647" width="1.817" height="2.271" style="fill:white;stroke:black;stroke-opacity:0.219608;stroke-width:2.02px;"/>
            </g>
            <g transform="matrix(0.828201,0,0,0.736575,39.9343,21.756)">
                <rect x="113.307" y="25.647" width="1.817" height="2.271" style="fill:white;stroke:black;stroke-opacity:0.219608;stroke-width:2.02px;"/>
            </g>
            <g transform="matrix(0.828201,0,0,0.736575,34.9343,11.756)">
                <rect x="113.307" y="25.647" width="1.817" height="2.271" style="fill:white;stroke:black;stroke-opacity:0.219608;stroke-width:2.02px;"/>
            </g>
            <g transform="matrix(0.828201,0,0,0.736575,29.9343,11.756)">
                <rect x="113.307" y="25.647" width="1.817" height="2.271" style="fill:white;stroke:black;stroke-opacity:0.219608;stroke-width:2.02px;"/>
            </g>
            <g transform="matrix(0.828201,0,0,0.736575,24.9343,11.756)">
                <rect x="113.307" y="25.647" width="1.817" height="2.271" style="fill:white;stroke:black;stroke-opacity:0.219608;stroke-width:2.02px;"/>
            </g>
            <g transform="matrix(0.828201,0,0,0.736575,34.9343,16.756)">
                <rect x="113.307" y="25.647" width="1.817" height="2.271" style="fill:white;stroke:black;stroke-opacity:0.219608;stroke-width:2.02px;"/>
            </g>
            <g transform="matrix(0.828201,0,0,0.736575,29.9343,16.756)">
                <rect x="113.307" y="25.647" width="1.817" height="2.271" style="fill:white;stroke:black;stroke-opacity:0.219608;stroke-width:2.02px;"/>
            </g>
            <g transform="matrix(0.828201,0,0,0.736575,24.9343,16.756)">
                <rect x="113.307" y="25.647" width="1.817" height="2.271" style="fill:white;stroke:black;stroke-opacity:0.219608;stroke-width:2.02px;"/>
            </g>
            <g transform="matrix(0.828201,0,0,0.736575,19.9343,16.756)">
                <rect x="113.307" y="25.647" width="1.817" height="2.271" style="fill:white;stroke:black;stroke-opacity:0.219608;stroke-width:2.02px;"/>
            </g>
            <g transform="matrix(0.828201,0,0,0.736575,19.9343,21.756)">
                <rect x="113.307" y="25.647" width="1.817" height="2.271" style="fill:white;stroke:black;stroke-opacity:0.219608;stroke-width:2.02px;"/>
            </g>
            <g transform="matrix(0.828201,0,0,0.736575,24.9343,21.756)">
                <rect x="113.307" y="25.647" width="1.817" height="2.271" style="fill:white;stroke:black;stroke-opacity:0.219608;stroke-width:2.02px;"/>
            </g>
            <g transform="matrix(0.828201,0,0,0.736575,29.9343,21.756)">
                <rect x="113.307" y="25.647" width="1.817" height="2.271" style="fill:white;stroke:black;stroke-opacity:0.219608;stroke-width:2.02px;"/>
            </g>
            <g transform="matrix(0.828201,0,0,0.736575,34.9343,21.756)">
                <rect x="113.307" y="25.647" width="1.817" height="2.271" style="fill:white;stroke:black;stroke-opacity:0.219608;stroke-width:2.02px;"/>
            </g>
        </g>
        <g id="电池板2" serif:id="电池板" transform="matrix(-0.706579,-0.706588,0.707632,-0.705533,174.132,479.866)">
            <g transform="matrix(0.828201,0,0,0.736575,19.9343,6.75602)">
                <rect x="113.307" y="25.647" width="1.817" height="2.271" style="fill:white;stroke:black;stroke-opacity:0.219608;stroke-width:2.02px;"/>
            </g>
            <g transform="matrix(0.828201,0,0,0.736575,24.9343,6.75602)">
                <rect x="113.307" y="25.647" width="1.817" height="2.271" style="fill:white;stroke:black;stroke-opacity:0.219608;stroke-width:2.02px;"/>
            </g>
            <g transform="matrix(0.828201,0,0,0.736575,29.9343,6.75602)">
                <rect x="113.307" y="25.647" width="1.817" height="2.271" style="fill:white;stroke:black;stroke-opacity:0.219608;stroke-width:2.02px;"/>
            </g>
            <g transform="matrix(0.828201,0,0,0.736575,19.9343,11.756)">
                <rect x="113.307" y="25.647" width="1.817" height="2.271" style="fill:white;stroke:black;stroke-opacity:0.219608;stroke-width:2.02px;"/>
            </g>
            <g transform="matrix(0.828201,0,0,0.736575,34.9343,6.75602)">
                <rect x="113.307" y="25.647" width="1.817" height="2.271" style="fill:white;stroke:black;stroke-opacity:0.219608;stroke-width:2.02px;"/>
            </g>
            <g transform="matrix(0.828201,0,0,0.736575,39.9343,6.75602)">
                <rect x="113.307" y="25.647" width="1.817" height="2.271" style="fill:white;stroke:black;stroke-opacity:0.219608;stroke-width:2.02px;"/>
            </g>
            <g transform="matrix(0.828201,0,0,0.736575,39.9343,11.756)">
                <rect x="113.307" y="25.647" width="1.817" height="2.271" style="fill:white;stroke:black;stroke-opacity:0.219608;stroke-width:2.02px;"/>
            </g>
            <g transform="matrix(0.828201,0,0,0.736575,39.9343,16.756)">
                <rect x="113.307" y="25.647" width="1.817" height="2.271" style="fill:white;stroke:black;stroke-opacity:0.219608;stroke-width:2.02px;"/>
            </g>
            <g transform="matrix(0.828201,0,0,0.736575,39.9343,21.756)">
                <rect x="113.307" y="25.647" width="1.817" height="2.271" style="fill:white;stroke:black;stroke-opacity:0.219608;stroke-width:2.02px;"/>
            </g>
            <g transform="matrix(0.828201,0,0,0.736575,34.9343,11.756)">
                <rect x="113.307" y="25.647" width="1.817" height="2.271" style="fill:white;stroke:black;stroke-opacity:0.219608;stroke-width:2.02px;"/>
            </g>
            <g transform="matrix(0.828201,0,0,0.736575,29.9343,11.756)">
                <rect x="113.307" y="25.647" width="1.817" height="2.271" style="fill:white;stroke:black;stroke-opacity:0.219608;stroke-width:2.02px;"/>
            </g>
            <g transform="matrix(0.828201,0,0,0.736575,24.9343,11.756)">
                <rect x="113.307" y="25.647" width="1.817" height="2.271" style="fill:white;stroke:black;stroke-opacity:0.219608;stroke-width:2.02px;"/>
            </g>
            <g transform="matrix(0.828201,0,0,0.736575,34.9343,16.756)">
                <rect x="113.307" y="25.647" width="1.817" height="2.271" style="fill:white;stroke:black;stroke-opacity:0.219608;stroke-width:2.02px;"/>
            </g>
            <g transform="matrix(0.828201,0,0,0.736575,29.9343,16.756)">
                <rect x="113.307" y="25.647" width="1.817" height="2.271" style="fill:white;stroke:black;stroke-opacity:0.219608;stroke-width:2.02px;"/>
            </g>
            <g transform="matrix(0.828201,0,0,0.736575,24.9343,16.756)">
                <rect x="113.307" y="25.647" width="1.817" height="2.271" style="fill:white;stroke:black;stroke-opacity:0.219608;stroke-width:2.02px;"/>
            </g>
            <g transform="matrix(0.828201,0,0,0.736575,19.9343,16.756)">
                <rect x="113.307" y="25.647" width="1.817" height="2.271" style="fill:white;stroke:black;stroke-opacity:0.219608;stroke-width:2.02px;"/>
            </g>
            <g transform="matrix(0.828201,0,0,0.736575,19.9343,21.756)">
                <rect x="113.307" y="25.647" width="1.817" height="2.271" style="fill:white;stroke:black;stroke-opacity:0.219608;stroke-width:2.02px;"/>
            </g>
            <g transform="matrix(0.828201,0,0,0.736575,24.9343,21.756)">
                <rect x="113.307" y="25.647" width="1.817" height="2.271" style="fill:white;stroke:black;stroke-opacity:0.219608;stroke-width:2.02px;"/>
            </g>
            <g transform="matrix(0.828201,0,0,0.736575,29.9343,21.756)">
                <rect x="113.307" y="25.647" width="1.817" height="2.271" style="fill:white;stroke:black;stroke-opacity:0.219608;stroke-width:2.02px;"/>
            </g>
            <g transform="matrix(0.828201,0,0,0.736575,34.9343,21.756)">
                <rect x="113.307" y="25.647" width="1.817" height="2.271" style="fill:white;stroke:black;stroke-opacity:0.219608;stroke-width:2.02px;"/>
            </g>
        </g>
        <g transform="matrix(-0.706579,-0.706588,0.708681,-0.706579,13.2994,643.044)">
            <rect x="110.058" y="189.427" width="31.94" height="87.687" style="fill:none;stroke:black;stroke-opacity:0.219608;stroke-width:1.58px;"/>
        </g>
    </g>
    <g id="电池板组1" serif:id="电池板组" transform="matrix(-1,-0.00097892,0.000980372,-1.00148,249.827,469.075)">
        <g transform="matrix(-0.706579,-0.706588,0.708681,-0.706579,-38.1784,631.247)">
            <rect x="110.058" y="189.427" width="31.94" height="87.687" style="fill:white;stroke:black;stroke-width:1px;stroke-linecap:butt;stroke-miterlimit:1.41421;"/>
        </g>
        <g id="电池板3" serif:id="电池板" transform="matrix(-0.706579,-0.706588,0.707632,-0.705533,83.7354,506.872)">
            <g transform="matrix(0.828201,0,0,0.736575,19.9343,6.75602)">
                <rect x="113.307" y="25.647" width="1.817" height="2.271" style="fill:white;stroke:black;stroke-opacity:0.219608;stroke-width:2.02px;"/>
            </g>
            <g transform="matrix(0.828201,0,0,0.736575,24.9343,6.75602)">
                <rect x="113.307" y="25.647" width="1.817" height="2.271" style="fill:white;stroke:black;stroke-opacity:0.219608;stroke-width:2.02px;"/>
            </g>
            <g transform="matrix(0.828201,0,0,0.736575,29.9343,6.75602)">
                <rect x="113.307" y="25.647" width="1.817" height="2.271" style="fill:white;stroke:black;stroke-opacity:0.219608;stroke-width:2.02px;"/>
            </g>
            <g transform="matrix(0.828201,0,0,0.736575,19.9343,11.756)">
                <rect x="113.307" y="25.647" width="1.817" height="2.271" style="fill:white;stroke:black;stroke-opacity:0.219608;stroke-width:2.02px;"/>
            </g>
            <g transform="matrix(0.828201,0,0,0.736575,34.9343,6.75602)">
                <rect x="113.307" y="25.647" width="1.817" height="2.271" style="fill:white;stroke:black;stroke-opacity:0.219608;stroke-width:2.02px;"/>
            </g>
            <g transform="matrix(0.828201,0,0,0.736575,39.9343,6.75602)">
                <rect x="113.307" y="25.647" width="1.817" height="2.271" style="fill:white;stroke:black;stroke-opacity:0.219608;stroke-width:2.02px;"/>
            </g>
            <g transform="matrix(0.828201,0,0,0.736575,39.9343,11.756)">
                <rect x="113.307" y="25.647" width="1.817" height="2.271" style="fill:white;stroke:black;stroke-opacity:0.219608;stroke-width:2.02px;"/>
            </g>
            <g transform="matrix(0.828201,0,0,0.736575,39.9343,16.756)">
                <rect x="113.307" y="25.647" width="1.817" height="2.271" style="fill:white;stroke:black;stroke-opacity:0.219608;stroke-width:2.02px;"/>
            </g>
            <g transform="matrix(0.828201,0,0,0.736575,39.9343,21.756)">
                <rect x="113.307" y="25.647" width="1.817" height="2.271" style="fill:white;stroke:black;stroke-opacity:0.219608;stroke-width:2.02px;"/>
            </g>
            <g transform="matrix(0.828201,0,0,0.736575,34.9343,11.756)">
                <rect x="113.307" y="25.647" width="1.817" height="2.271" style="fill:white;stroke:black;stroke-opacity:0.219608;stroke-width:2.02px;"/>
            </g>
            <g transform="matrix(0.828201,0,0,0.736575,29.9343,11.756)">
                <rect x="113.307" y="25.647" width="1.817" height="2.271" style="fill:white;stroke:black;stroke-opacity:0.219608;stroke-width:2.02px;"/>
            </g>
            <g transform="matrix(0.828201,0,0,0.736575,24.9343,11.756)">
                <rect x="113.307" y="25.647" width="1.817" height="2.271" style="fill:white;stroke:black;stroke-opacity:0.219608;stroke-width:2.02px;"/>
            </g>
            <g transform="matrix(0.828201,0,0,0.736575,34.9343,16.756)">
                <rect x="113.307" y="25.647" width="1.817" height="2.271" style="fill:white;stroke:black;stroke-opacity:0.219608;stroke-width:2.02px;"/>
            </g>
            <g transform="matrix(0.828201,0,0,0.736575,29.9343,16.756)">
                <rect x="113.307" y="25.647" width="1.817" height="2.271" style="fill:white;stroke:black;stroke-opacity:0.219608;stroke-width:2.02px;"/>
            </g>
            <g transform="matrix(0.828201,0,0,0.736575,24.9343,16.756)">
                <rect x="113.307" y="25.647" width="1.817" height="2.271" style="fill:white;stroke:black;stroke-opacity:0.219608;stroke-width:2.02px;"/>
            </g>
            <g transform="matrix(0.828201,0,0,0.736575,19.9343,16.756)">
                <rect x="113.307" y="25.647" width="1.817" height="2.271" style="fill:white;stroke:black;stroke-opacity:0.219608;stroke-width:2.02px;"/>
            </g>
            <g transform="matrix(0.828201,0,0,0.736575,19.9343,21.756)">
                <rect x="113.307" y="25.647" width="1.817" height="2.271" style="fill:white;stroke:black;stroke-opacity:0.219608;stroke-width:2.02px;"/>
            </g>
            <g transform="matrix(0.828201,0,0,0.736575,24.9343,21.756)">
                <rect x="113.307" y="25.647" width="1.817" height="2.271" style="fill:white;stroke:black;stroke-opacity:0.219608;stroke-width:2.02px;"/>
            </g>
            <g transform="matrix(0.828201,0,0,0.736575,29.9343,21.756)">
                <rect x="113.307" y="25.647" width="1.817" height="2.271" style="fill:white;stroke:black;stroke-opacity:0.219608;stroke-width:2.02px;"/>
            </g>
            <g transform="matrix(0.828201,0,0,0.736575,34.9343,21.756)">
                <rect x="113.307" y="25.647" width="1.817" height="2.271" style="fill:white;stroke:black;stroke-opacity:0.219608;stroke-width:2.02px;"/>
            </g>
        </g>
        <g id="电池板4" serif:id="电池板" transform="matrix(-0.706579,-0.706588,0.707632,-0.705533,103.549,487.118)">
            <g transform="matrix(0.828201,0,0,0.736575,19.9343,6.75602)">
                <rect x="113.307" y="25.647" width="1.817" height="2.271" style="fill:white;stroke:black;stroke-opacity:0.219608;stroke-width:2.02px;"/>
            </g>
            <g transform="matrix(0.828201,0,0,0.736575,24.9343,6.75602)">
                <rect x="113.307" y="25.647" width="1.817" height="2.271" style="fill:white;stroke:black;stroke-opacity:0.219608;stroke-width:2.02px;"/>
            </g>
            <g transform="matrix(0.828201,0,0,0.736575,29.9343,6.75602)">
                <rect x="113.307" y="25.647" width="1.817" height="2.271" style="fill:white;stroke:black;stroke-opacity:0.219608;stroke-width:2.02px;"/>
            </g>
            <g transform="matrix(0.828201,0,0,0.736575,19.9343,11.756)">
                <rect x="113.307" y="25.647" width="1.817" height="2.271" style="fill:white;stroke:black;stroke-opacity:0.219608;stroke-width:2.02px;"/>
            </g>
            <g transform="matrix(0.828201,0,0,0.736575,34.9343,6.75602)">
                <rect x="113.307" y="25.647" width="1.817" height="2.271" style="fill:white;stroke:black;stroke-opacity:0.219608;stroke-width:2.02px;"/>
            </g>
            <g transform="matrix(0.828201,0,0,0.736575,39.9343,6.75602)">
                <rect x="113.307" y="25.647" width="1.817" height="2.271" style="fill:white;stroke:black;stroke-opacity:0.219608;stroke-width:2.02px;"/>
            </g>
            <g transform="matrix(0.828201,0,0,0.736575,39.9343,11.756)">
                <rect x="113.307" y="25.647" width="1.817" height="2.271" style="fill:white;stroke:black;stroke-opacity:0.219608;stroke-width:2.02px;"/>
            </g>
            <g transform="matrix(0.828201,0,0,0.736575,39.9343,16.756)">
                <rect x="113.307" y="25.647" width="1.817" height="2.271" style="fill:white;stroke:black;stroke-opacity:0.219608;stroke-width:2.02px;"/>
            </g>
            <g transform="matrix(0.828201,0,0,0.736575,39.9343,21.756)">
                <rect x="113.307" y="25.647" width="1.817" height="2.271" style="fill:white;stroke:black;stroke-opacity:0.219608;stroke-width:2.02px;"/>
            </g>
            <g transform="matrix(0.828201,0,0,0.736575,34.9343,11.756)">
                <rect x="113.307" y="25.647" width="1.817" height="2.271" style="fill:white;stroke:black;stroke-opacity:0.219608;stroke-width:2.02px;"/>
            </g>
            <g transform="matrix(0.828201,0,0,0.736575,29.9343,11.756)">
                <rect x="113.307" y="25.647" width="1.817" height="2.271" style="fill:white;stroke:black;stroke-opacity:0.219608;stroke-width:2.02px;"/>
            </g>
            <g transform="matrix(0.828201,0,0,0.736575,24.9343,11.756)">
                <rect x="113.307" y="25.647" width="1.817" height="2.271" style="fill:white;stroke:black;stroke-opacity:0.219608;stroke-width:2.02px;"/>
            </g>
            <g transform="matrix(0.828201,0,0,0.736575,34.9343,16.756)">
                <rect x="113.307" y="25.647" width="1.817" height="2.271" style="fill:white;stroke:black;stroke-opacity:0.219608;stroke-width:2.02px;"/>
            </g>
            <g transform="matrix(0.828201,0,0,0.736575,29.9343,16.756)">
                <rect x="113.307" y="25.647" width="1.817" height="2.271" style="fill:white;stroke:black;stroke-opacity:0.219608;stroke-width:2.02px;"/>
            </g>
            <g transform="matrix(0.828201,0,0,0.736575,24.9343,16.756)">
                <rect x="113.307" y="25.647" width="1.817" height="2.271" style="fill:white;stroke:black;stroke-opacity:0.219608;stroke-width:2.02px;"/>
            </g>
            <g transform="matrix(0.828201,0,0,0.736575,19.9343,16.756)">
                <rect x="113.307" y="25.647" width="1.817" height="2.271" style="fill:white;stroke:black;stroke-opacity:0.219608;stroke-width:2.02px;"/>
            </g>
            <g transform="matrix(0.828201,0,0,0.736575,19.9343,21.756)">
                <rect x="113.307" y="25.647" width="1.817" height="2.271" style="fill:white;stroke:black;stroke-opacity:0.219608;stroke-width:2.02px;"/>
            </g>
            <g transform="matrix(0.828201,0,0,0.736575,24.9343,21.756)">
                <rect x="113.307" y="25.647" width="1.817" height="2.271" style="fill:white;stroke:black;stroke-opacity:0.219608;stroke-width:2.02px;"/>
            </g>
            <g transform="matrix(0.828201,0,0,0.736575,29.9343,21.756)">
                <rect x="113.307" y="25.647" width="1.817" height="2.271" style="fill:white;stroke:black;stroke-opacity:0.219608;stroke-width:2.02px;"/>
            </g>
            <g transform="matrix(0.828201,0,0,0.736575,34.9343,21.756)">
                <rect x="113.307" y="25.647" width="1.817" height="2.271" style="fill:white;stroke:black;stroke-opacity:0.219608;stroke-width:2.02px;"/>
            </g>
        </g>
        <g id="电池板5" serif:id="电池板" transform="matrix(-0.706579,-0.706588,0.707632,-0.705533,122.654,468.069)">
            <g transform="matrix(0.828201,0,0,0.736575,19.9343,6.75602)">
                <rect x="113.307" y="25.647" width="1.817" height="2.271" style="fill:white;stroke:black;stroke-opacity:0.219608;stroke-width:2.02px;"/>
            </g>
            <g transform="matrix(0.828201,0,0,0.736575,24.9343,6.75602)">
                <rect x="113.307" y="25.647" width="1.817" height="2.271" style="fill:white;stroke:black;stroke-opacity:0.219608;stroke-width:2.02px;"/>
            </g>
            <g transform="matrix(0.828201,0,0,0.736575,29.9343,6.75602)">
                <rect x="113.307" y="25.647" width="1.817" height="2.271" style="fill:white;stroke:black;stroke-opacity:0.219608;stroke-width:2.02px;"/>
            </g>
            <g transform="matrix(0.828201,0,0,0.736575,19.9343,11.756)">
                <rect x="113.307" y="25.647" width="1.817" height="2.271" style="fill:white;stroke:black;stroke-opacity:0.219608;stroke-width:2.02px;"/>
            </g>
            <g transform="matrix(0.828201,0,0,0.736575,34.9343,6.75602)">
                <rect x="113.307" y="25.647" width="1.817" height="2.271" style="fill:white;stroke:black;stroke-opacity:0.219608;stroke-width:2.02px;"/>
            </g>
            <g transform="matrix(0.828201,0,0,0.736575,39.9343,6.75602)">
                <rect x="113.307" y="25.647" width="1.817" height="2.271" style="fill:white;stroke:black;stroke-opacity:0.219608;stroke-width:2.02px;"/>
            </g>
            <g transform="matrix(0.828201,0,0,0.736575,39.9343,11.756)">
                <rect x="113.307" y="25.647" width="1.817" height="2.271" style="fill:white;stroke:black;stroke-opacity:0.219608;stroke-width:2.02px;"/>
            </g>
            <g transform="matrix(0.828201,0,0,0.736575,39.9343,16.756)">
                <rect x="113.307" y="25.647" width="1.817" height="2.271" style="fill:white;stroke:black;stroke-opacity:0.219608;stroke-width:2.02px;"/>
            </g>
            <g transform="matrix(0.828201,0,0,0.736575,39.9343,21.756)">
                <rect x="113.307" y="25.647" width="1.817" height="2.271" style="fill:white;stroke:black;stroke-opacity:0.219608;stroke-width:2.02px;"/>
            </g>
            <g transform="matrix(0.828201,0,0,0.736575,34.9343,11.756)">
                <rect x="113.307" y="25.647" width="1.817" height="2.271" style="fill:white;stroke:black;stroke-opacity:0.219608;stroke-width:2.02px;"/>
            </g>
            <g transform="matrix(0.828201,0,0,0.736575,29.9343,11.756)">
                <rect x="113.307" y="25.647" width="1.817" height="2.271" style="fill:white;stroke:black;stroke-opacity:0.219608;stroke-width:2.02px;"/>
            </g>
            <g transform="matrix(0.828201,0,0,0.736575,24.9343,11.756)">
                <rect x="113.307" y="25.647" width="1.817" height="2.271" style="fill:white;stroke:black;stroke-opacity:0.219608;stroke-width:2.02px;"/>
            </g>
            <g transform="matrix(0.828201,0,0,0.736575,34.9343,16.756)">
                <rect x="113.307" y="25.647" width="1.817" height="2.271" style="fill:white;stroke:black;stroke-opacity:0.219608;stroke-width:2.02px;"/>
            </g>
            <g transform="matrix(0.828201,0,0,0.736575,29.9343,16.756)">
                <rect x="113.307" y="25.647" width="1.817" height="2.271" style="fill:white;stroke:black;stroke-opacity:0.219608;stroke-width:2.02px;"/>
            </g>
            <g transform="matrix(0.828201,0,0,0.736575,24.9343,16.756)">
                <rect x="113.307" y="25.647" width="1.817" height="2.271" style="fill:white;stroke:black;stroke-opacity:0.219608;stroke-width:2.02px;"/>
            </g>
            <g transform="matrix(0.828201,0,0,0.736575,19.9343,16.756)">
                <rect x="113.307" y="25.647" width="1.817" height="2.271" style="fill:white;stroke:black;stroke-opacity:0.219608;stroke-width:2.02px;"/>
            </g>
            <g transform="matrix(0.828201,0,0,0.736575,19.9343,21.756)">
                <rect x="113.307" y="25.647" width="1.817" height="2.271" style="fill:white;stroke:black;stroke-opacity:0.219608;stroke-width:2.02px;"/>
            </g>
            <g transform="matrix(0.828201,0,0,0.736575,24.9343,21.756)">
                <rect x="113.307" y="25.647" width="1.817" height="2.271" style="fill:white;stroke:black;stroke-opacity:0.219608;stroke-width:2.02px;"/>
            </g>
            <g transform="matrix(0.828201,0,0,0.736575,29.9343,21.756)">
                <rect x="113.307" y="25.647" width="1.817" height="2.271" style="fill:white;stroke:black;stroke-opacity:0.219608;stroke-width:2.02px;"/>
            </g>
            <g transform="matrix(0.828201,0,0,0.736575,34.9343,21.756)">
                <rect x="113.307" y="25.647" width="1.817" height="2.271" style="fill:white;stroke:black;stroke-opacity:0.219608;stroke-width:2.02px;"/>
            </g>
        </g>
        <g transform="matrix(-0.706579,-0.706588,0.708681,-0.706579,-38.1784,631.247)">
            <rect x="110.058" y="189.427" width="31.94" height="87.687" style="fill:none;stroke:black;stroke-opacity:0.219608;stroke-width:1.58px;"/>
        </g>
    </g>
    <g transform="matrix(-0.706579,-0.707634,0.707634,-0.706579,133.213,345.156)">
        <rect x="105.917" y="122.886" width="34.01" height="49.389" style="fill:white;stroke:black;stroke-opacity:0.219608;stroke-width:1.58px;"/>
    </g>
    <g transform="matrix(-0.165889,-0.166145,1.03394,-1.03235,5.84792,314.324)">
        <rect x="105.917" y="122.886" width="34.01" height="49.389" style="fill:white;stroke:black;stroke-opacity:0.219608;stroke-width:1.51px;"/>
    </g>
</svg>
