<?xml version="1.0" standalone="no"?><!DOCTYPE svg PUBLIC "-//W3C//DTD SVG 1.1//EN" "http://www.w3.org/Graphics/SVG/1.1/DTD/svg11.dtd"><svg t="1561103699065" class="icon" viewBox="0 0 1024 1024" version="1.1" xmlns="http://www.w3.org/2000/svg" p-id="5894" xmlns:xlink="http://www.w3.org/1999/xlink" width="200" height="200"><defs><style type="text/css"></style></defs><path d="M544 531.062834 582.705916 569.76875C595.202694 582.265528 615.463973 582.265528 627.96075 569.76875 640.45753 557.271973 640.45753 537.010694 627.96075 524.513916L534.627417 431.180583 512 408.553166 489.372583 431.180583 396.03925 524.513916C383.542472 537.010694 383.542472 557.271973 396.03925 569.76875 408.536027 582.265528 428.797306 582.265528 441.294084 569.76875L480 531.062834 480 827.141331C480 844.814445 494.326888 859.141331 512 859.141331 529.673112 859.141331 544 844.814445 544 827.141331L544 531.062834ZM812.496 709.808C911.642086 709.808 992 629.464136 992 530.341333 992 431.185912 911.646803 350.818667 812.496 350.818667 810.417523 350.8674 810.417523 350.8674 809.531738 350.938892 809.657978 350.921965 811.413331 382.874667 811.413331 382.874667L843.164243 386.859599C844.587994 375.515522 845.336 365.105777 845.336 354.8 845.336 211.867515 729.475072 96 586.536 96 477.398866 96 381.294152 164.303622 343.986092 265.126804L373.997333 276.232 396.645538 253.62539C369.806397 226.736867 333.391412 211.304 294.645333 211.304 215.021265 211.304 150.477333 275.840511 150.477333 355.453333 150.55554 358.714185 150.55554 358.714185 150.686193 360.47099 150.739455 361.248936 182.72 360.138667 182.72 360.138667L174.194902 329.295147C90.794607 352.346852 32 428.302602 32 515.986667 32 623.039235 118.775678 709.808 225.84 709.808L381.333333 709.808C399.006445 709.808 413.333333 695.481112 413.333333 677.808 413.333333 660.134888 399.006445 645.808 381.333333 645.808L225.84 645.808C154.120761 645.808 96 587.69187 96 515.986667 96 457.298389 135.380819 406.422982 191.245098 390.982186 205.524937 387.035262 215.228391 373.802361 214.699612 358.996538 214.612439 357.152771 214.612439 357.152771 214.530772 356.013101 214.477333 311.188383 250.365842 275.304 294.645333 275.304 316.216627 275.304 336.392813 283.854776 351.349129 298.83861 367.842319 315.362147 395.906515 309.232611 404.008575 287.337196 432.107539 211.401138 504.430083 160 586.536 160 694.128032 160 781.336 247.212924 781.336 354.8 781.336 362.216668 780.774816 370.026466 779.662426 378.889734 777.264698 397.99419 792.159002 414.874667 811.413331 414.874667 813.738022 414.813368 813.738022 414.813368 814.513517 414.744756 876.298074 414.818667 928 466.529631 928 530.341333 928 594.115407 876.298368 645.808 812.496 645.808L642.666669 645.808C624.993555 645.808 610.666667 660.134888 610.666667 677.808 610.666667 695.481112 624.993555 709.808 642.666669 709.808L812.496 709.808Z" p-id="5895" fill="#ffa500"></path></svg>