<svg xmlns="http://www.w3.org/2000/svg" width="2257" height="3326" viewBox="0 0 2257 3326"><path fill="#8C8C8C" fill-opacity=".075" d="M16.335 1886.51c.493 8.612.558 15.982 1.401 23.262 2.348 20.279 4.754 40.559 7.617 60.769 6.373 44.995 15.426 89.401 29.605 132.677 13.458 41.072 38.143 73.09 75.622 94.967 23.714 13.844 48.953 24.069 75.887 29.213 24.21 4.621 48.643 8.259 73.102 11.346 29.812 3.763 59.751 6.507 89.64 9.648 1.888.198 3.814.025 6.491.025.215-3.333.651-6.088.528-8.816-1.122-24.719-4.275-49.17-10.732-73.086-25.521-94.513-79.923-168.281-161.229-222.173-51.635-34.225-108.716-53.318-170.576-57.78-5.277-.382-10.608-.052-17.356-.052zm-390.458 361.148c6.456 0 12.396.541 18.207-.088 39.19-4.249 78.396-8.411 117.514-13.263 34.314-4.256 67.209-13.79 98.106-29.557 39.23-20.02 68.135-49.669 83.269-91.513a554.515 554.515 0 0 0 14.887-47.909c14.645-55.864 22.037-112.938 27.394-170.318.252-2.707.032-5.458.032-8.174-185.397-2.136-359.906 168.662-359.409 360.822zm359.639 391.421c-.273-5.578-.213-10.085-.761-14.516-2.607-21.104-5.346-42.189-8.101-63.273-5-38.26-10.982-76.338-21.948-113.437-5.872-19.863-12.03-39.657-21.962-57.97-17.729-32.691-45.013-55.023-77.978-70.977-29.646-14.35-61.378-21.775-93.595-27.324-43.084-7.42-86.659-10.619-130.132-14.656-1.83-.17-3.731.428-6.096.733 0 2.445-.071 4.39.01 6.329 1.177 28.182 5.775 55.827 13.589 82.896 24.578 85.152 73.203 153.512 144.971 205.221 53.374 38.457 112.885 61.26 178.65 66.889 7.234.62 14.567.085 23.353.085zm390.429-361.915c-3.865 0-7.184-.271-10.443.05a1762.021 1762.021 0 0 0-35.515 3.838c-33.499 3.981-67.089 7.359-100.451 12.278-32.74 4.826-64.056 14.855-93.219 30.872-35.033 19.242-61.356 46.554-75.883 84.146-5.713 14.783-10.374 30.024-14.65 45.299-11.265 40.221-18.191 81.317-23.445 122.701-2.07 16.312-3.781 32.678-5.297 49.051-.427 4.604-1.561 9.578 1.416 13.867 184.903.76 357.715-169.171 357.487-362.102zm197.103-14.104c-7.003 2.265-6.896 6.476-7.151 10.457-.688 10.756-1.198 21.525-1.997 32.273-3.038 40.88-10.414 80.974-22.021 120.29-25.151 85.188-69.195 159.404-130.153 223.745-81.828 86.372-180.396 142.875-297.416 166.38-33.166 6.662-66.653 10.511-100.445 11.859-7.717.309-8.222.802-8.336 8.405-.14 9.362-.097 18.731.012 28.096.028 2.454.597 4.903 1.035 8.264 80.859-.167 157.699-16.164 231.318-47.777 116.237-49.916 208.806-127.849 277.012-234.549 135.397-211.811 126.143-482.376-19.612-683.925-73.954-102.262-170.177-175.244-289.029-218.145-65.629-23.691-133.156-36.077-204.395-35.473.729 15.482 1.172 29.715 2.739 44.001 2.942.427 4.867.809 6.811.97 20.626 1.706 41.323 2.798 61.87 5.185 37.294 4.332 73.73 12.806 109.359 24.7 84.268 28.136 156.742 75.014 219.099 137.932 88.681 89.477 142.107 196.432 158.562 321.473 2.771 21.06 3.708 42.361 5.473 63.554.37 4.491-.074 9.296 7.265 12.285zM-2.938 1652.633c-3.224 0-6.022-.146-8.802.027-8.201.515-16.408.996-24.586 1.78-18.916 1.814-37.949 2.943-56.698 5.862-84.34 13.129-163.193 41.434-234.908 88.099-94.979 61.802-166.507 144.888-218.63 244.946-35.874 68.865-55.57 142.458-61.139 219.837-2.266 31.47-1.719 62.913.944 94.384 3.574 42.243 10.529 83.844 21.984 124.654 56.919 202.767 217.617 360.902 421.425 418.582 35.86 10.148 72.369 16.852 109.479 20.035 14.116 1.211 28.324 1.471 42.499 1.777 6.131.133 6.812-.79 6.898-6.968.147-10.5.064-21.003-.035-31.503-.016-1.599-.644-3.19-1.102-5.311-3.916-.417-7.516-.871-11.129-1.174-18.086-1.514-36.246-2.396-54.249-4.583-59.928-7.274-117.085-24.406-171.564-50.257-85.35-40.497-155.127-99.995-211.563-175.364-47.293-63.161-79.026-133.468-95.866-210.608-7.472-34.229-10.603-68.915-13.071-103.727-.518-7.296-.109-14.839-6.628-20.511 5.883-4.358 5.659-10.276 6.171-15.894 2.037-22.317 3.082-44.77 6.181-66.936 7.99-57.148 24.694-111.798 49.767-163.817 38.305-79.473 93.615-145.132 162.802-199.346 77.878-61.024 165.709-99.011 263.904-112.14 23.585-3.153 47.425-4.387 71.147-6.509 7.074-.633 7.794-1.196 7.916-8.165.174-9.931.117-19.867.012-29.8-.024-2.167-.662-4.331-1.159-7.37zm553.169 613.921c-6.24 0-11.601-.419-16.879.07-27.388 2.537-54.758 5.267-82.126 8.014-10.154 1.02-20.288 2.254-30.427 3.423-7.108.82-7.319 1.048-8.037 8.295-.194 1.975-.289 3.961-.388 5.944-.99 19.879-3.765 39.529-8.252 58.895-23.889 103.085-79.573 185.133-165.009 246.962-53.329 38.595-112.845 62.653-178.178 71.706-12.901 1.787-25.962 2.437-38.95 3.603-7.048.634-7.44.886-8.531 7.955-.736 4.76-1.39 9.555-1.669 14.358-1.436 24.63-2.917 49.261-4.009 73.907-.515 11.61-.484 23.266-.158 34.884.275 9.749 1.014 10.19 10.378 9.947 5.1-.132 10.188-.678 15.286-.902 44.742-1.976 88.432-9.993 131.141-23.281 77.626-24.148 146.393-63.913 206.302-118.75 71.1-65.079 122.52-143.183 153.471-234.613 14.451-42.69 23-86.559 25.91-131.483.82-12.65.125-25.396.125-38.934zm-1099.023.619c0 3.118.066 5.917-.01 8.712-.722 26.185 1.481 52.184 5.953 77.931 17.531 100.957 59.15 190.872 125.852 268.659 82.714 96.459 187.438 155.994 311.371 182.301 30.616 6.499 61.619 9.655 92.966 8.639 7.755-.251 8.359-.801 8.105-8.344-.343-10.203-.997-20.396-1.452-30.596-1.364-30.601-2.661-61.204-4.063-91.804-.41-8.932-.857-9.167-10.065-9.679-35.829-1.988-70.871-8.225-105.267-18.576-126.779-38.158-264.044-160.76-283.026-347.088-.94-9.227-1.984-18.444-2.934-27.234-15.255-4.565-125.803-15.12-137.43-12.921zm545.573-555.02c-4.145-.295-7.182-.826-10.183-.67-13.593.711-27.197 1.346-40.756 2.5-42.886 3.651-84.624 12.845-125.206 27.099-155.879 54.751-281.592 178.807-338.413 333.947-20.682 56.466-31.629 114.697-30.794 174.973.046 3.311.387 6.617.667 11.179 45.822-4.449 90.752-9.141 136.219-14.086.662-4.773 1.462-8.911 1.778-13.086 2.525-33.223 8.499-65.793 18.652-97.533 29.516-92.27 86.426-163.848 166.191-217.568 61.003-41.084 129.136-61.373 202.209-66.035 3.581-.229 7.14-.783 11.207-1.242 4.381-46.647 7.532-92.592 8.429-139.478zm7.997-.288c-.146 2.937-.421 4.872-.31 6.784 1.92 33.131 3.879 66.259 5.85 99.387.521 8.774 1.046 17.55 1.682 26.316.506 6.965 1.03 7.477 8.12 8.22 6.768.708 13.542 1.375 20.326 1.894 27.531 2.105 54.494 7.191 80.98 14.98 46.609 13.708 88.281 37.011 127.13 65.646 65.312 48.141 112.146 110.14 139.196 186.844 13.191 37.406 20.299 76.086 24.438 115.406.924 8.779 1.4 9.314 10.186 10.515 15.729 2.148 31.442 4.561 47.238 6.038 23.146 2.166 46.354 3.692 69.549 5.275 3.809.261 7.691-.582 12.424-.993 0-4.825.236-8.753-.041-12.646-1.211-16.964-2.271-33.946-3.938-50.868-3.886-39.437-12.91-77.808-26.534-114.934-51.853-141.286-145.459-245.649-279.761-313.209-69.714-35.069-144.036-52.761-222.031-54.974-4.716-.132-9.446.197-14.504.319zm-357.498-9.594c-2.452 2.196-4.675 4.737-7.39 6.538-74.723 49.545-137.742 110.912-187.602 185.57-41.672 62.398-72.256 129.748-90.045 202.752-8.342 34.235-13.571 68.96-16.642 104.072-3.171 36.277-3.931 72.553-1.106 108.835 11.595 148.886 61.542 281.939 163.989 392.8 62.076 67.175 135.995 118.15 218.896 156.324 67.17 30.932 137.586 51.16 210.412 63.352 15.104 2.527 30.191 5.146 45.303 7.622 4.158.682 8.375 1.006 13.561 1.609 1.237-16.663.685-32.571.426-49.037-7.538-.599-13.985-1.239-20.448-1.601-57.193-3.208-113.237-12.8-167.882-30.172-105.673-33.594-194.315-93.2-267.929-175.668-51.709-57.929-92.879-122.387-120.33-195.278-16.571-44.003-27.491-89.364-33.293-136.033-5.52-44.397-6.289-88.903-2.535-133.384 14.054-166.488 85.931-303.767 210.669-413.969 77.954-68.869 167.792-114.645 269.379-137.098 40.254-8.897 81.053-13.839 122.277-15.121 2.832-.087 5.664-.294 8.489-.539.816-.07 1.604-.467 3.148-.943l2.593-10.327c.252 1.658.39 2.483.501 3.313 1.004 7.418 1.008 7.359 8.156 7.908 18.945 1.457 37.94 2.471 56.819 4.543 110.641 12.146 211.993 48.966 300.999 116.537 94.936 72.074 166.358 162.703 210.641 273.905 17.185 43.153 28.324 87.927 34.706 133.935 6.027 43.455 7.418 87.091 4.609 130.789-9.481 147.579-64.827 275.333-166.608 382.797-60.302 63.667-130.022 113.906-211.204 147.714-50.578 21.063-103.102 35.025-157.466 41.615-22.219 2.693-44.634 3.772-66.958 5.605-3.068.252-6.129.612-10.344 1.04-.353 15.885-.317 31.32.063 47.994 3.74 0 7.025.361 10.208-.054 68.269-8.904 135.264-23.319 200.024-47.065 95.763-35.115 182.25-85.491 255.352-157.293 83.427-81.945 139.127-179.828 167.176-293.444 13.322-53.964 20.583-108.74 20.901-164.243 1.06-184.707-62.314-343.465-192.891-474.77-32.536-32.717-68.458-61.313-107.03-86.605-2.023-1.327-3.956-2.793-5.283-5.215 1.356.754 2.74 1.463 4.065 2.269 97.581 59.298 177.199 136.553 235.407 235.265 38.904 65.975 65.449 136.487 77.187 212.253 7.095 45.79 9.486 91.932 8.133 138.304-1.864 63.9-11.742 126.441-30.264 187.612-44.996 148.61-133.397 264.607-262.827 349.807-77.33 50.903-161.575 85.938-250.801 109.577-11.514 3.051-23.109 5.793-34.647 8.751-1.525.392-2.94 1.213-4.599 3.547 3.562 1.24 7.065 2.692 10.695 3.684 15.597 4.258 31.234 8.362 46.845 12.569 3.011.811 6.03 1.656 8.933 2.778 5.599 2.163 7.267 4.666 6.021 10.449-1.065 4.948-2.563 9.919-4.689 14.499-3.181 6.853-6.294 8.094-13.737 6.075-14.506-3.935-28.822-8.651-43.452-12.031-30.666-7.085-61.477-13.546-92.249-20.163-2.977-.641-6.102-.582-10.316-.947-2.379 16.138.081 31.971-2.131 47.528l-2.637-47.556c-4.039.37-7.303.465-10.493.992-36.159 5.975-71.371 16.02-106.841 24.955-9.625 2.425-19.206 5.036-28.867 7.307-7.603 1.786-10.366.596-13.765-6.307-1.984-4.028-3.474-8.405-4.474-12.787-1.616-7.08-.055-10.013 6.938-12.282 9.164-2.974 18.515-5.382 27.813-7.928 9.574-2.622 19.201-5.053 28.765-7.71 2.864-.797 5.594-2.073 8.385-3.13l-.011-1.939c-2.543-.788-5.055-1.693-7.632-2.343-36.042-9.09-71.83-19.008-106.907-31.409-86.937-30.736-166.962-73.758-237.949-133.032-100.622-84.021-168.327-189.233-203.373-315.49-14.16-51.016-22.5-102.991-25.895-155.83-2.957-46.031-1.783-91.942 4.242-137.608 13.986-106.005 53.26-201.891 116.961-287.76 53.074-71.542 117.821-130.305 193.776-176.767 2.647-1.619 5.506-2.891 8.267-4.324l-.188-.188zm741.326 1311.858c-12.927 4.054-24.588 3.723-36.037 2.076-47.073-6.766-86.866-28.284-120.764-61.135-3.994-3.87-7.486-8.586-10.062-13.511-3.794-7.255-1.434-11.347 6.825-12.28 5.59-.632 11.412-.801 16.958.008 46.621 6.796 88.315 24.165 122.064 58.055 7.772 7.805 14.18 16.715 21.016 26.787zm-774.593-.26c3.531-5.425 6.167-10.066 9.366-14.281 12.702-16.731 28.545-29.931 46.671-40.397 25.783-14.888 53.034-25.776 82.808-29.422 5.328-.653 10.785-1.131 16.105-.707 4.318.343 8.521 2.156 12.879 3.346-.498 6.701-2.945 11.441-6.347 15.59-3.769 4.594-7.663 9.182-12.069 13.14-32.664 29.337-70.286 48.68-113.983 55.084-11.176 1.636-22.58 1.737-35.43-2.353zm859.509-50.616c-6.28 1.401-12.493 3.362-18.85 4.11-31.427 3.703-61.64-1.375-90.637-13.727-18.855-8.032-36.314-18.652-53.328-30.004-4.796-3.2-8.823-7.071-10.8-12.746-1.953-5.61-1.382-7.627 4.115-9.993 2.812-1.21 5.959-2.163 8.988-2.268 52.77-1.817 101.358 10.169 142.947 44.298 6.505 5.338 12.057 11.838 18.049 17.802-.159.843-.322 1.686-.484 2.528zm-946.317-.441c3.98-4.894 6.688-8.771 9.936-12.125 14.626-15.104 32.27-25.818 51.335-34.257 32.297-14.299 66.215-19.301 101.313-16.894 5.064.347 11.121.564 13.035 6.104 1.912 5.531-2.58 9.979-6.482 12.868-11.596 8.581-23.246 17.276-35.733 24.427-37.133 21.264-77.142 29.046-119.64 23.12-4.077-.567-8.051-1.873-13.764-3.243zm-72.007-61.428c3.007-6.653 8.234-10.12 13.255-13.634 16.178-11.324 33.897-19.459 53.053-24.189 31.104-7.684 62.512-10.659 94.234-4.178 5.171 1.057 10.213 3.24 14.989 5.569 3.596 1.753 4.644 5.374 1.745 8.496-3.8 4.096-7.724 8.437-12.439 11.26-23.884 14.298-49.897 22.736-77.421 26.532-21.463 2.959-42.905 3.526-64.178-1.551-7.93-1.892-15.628-4.461-23.238-8.305zm1092.308-1.811c-11.954 7.396-23.898 9.917-35.916 11.374-36.38 4.412-71.743-.349-105.928-13.456-11.422-4.378-22.194-10.096-31.096-18.732-9.731-9.441-8.577-14.331 4.449-17.704 17.972-4.653 36.345-5.731 54.8-4.73 30.034 1.63 58.816 8.123 85.413 22.817 9.937 5.488 18.92 12.167 28.278 20.431zm-1161.55-67.611c7.655-7.02 15.524-11.405 23.747-15.172 16.668-7.634 34.413-11.516 52.485-13.262 28.733-2.776 57.139-.343 84.896 8.011 7.915 2.383 15.511 5.348 20.395 13.139-2.154 5.774-6.332 9.69-11.714 11.638-42.766 15.472-86.255 23.757-131.519 11.998-13.209-3.433-25.605-8.813-38.29-16.352zm1229.997-.507c-21.779 13.876-44.568 20.03-68.652 21.897-33.758 2.617-66.042-4.646-97.635-15.521-4.838-1.665-8.971-5.688-13.078-9.053-2.63-2.154-2.483-5.379.307-7.307 4.602-3.181 9.252-7.013 14.465-8.45 13.633-3.76 27.441-7.72 41.432-9.16 28.969-2.982 57.833-1.453 85.834 7.766 13.247 4.362 25.542 10.532 37.327 19.828zm-1290.741-76.788c12.5-8.785 25.32-12.186 38.51-14.329 41.2-6.691 80.811-.875 118.875 15.869 5.139 2.26 10.073 5.289 14.543 8.695 8.147 6.205 7.752 10.531-1.228 14.934-4.545 2.229-9.413 4.104-14.344 5.196-42.433 9.401-84.031 6.665-124.334-9.928-8.565-3.526-16.405-8.872-24.406-13.669-2.555-1.531-4.551-3.995-7.616-6.768zm1351.677-.264c-35.888 36.56-135.694 48.256-178.233 20.85-1.036-3.25 1-5.995 3.152-7.834 4.029-3.438 8.304-6.986 13.094-9.073 26.929-11.733 54.893-19.878 84.419-21.021 26.126-1.012 51.332 3.471 74.979 15.162.932.461 1.703 1.25 2.589 1.916zm48.215-83.239c-4.468 4.461-8.163 8.667-12.374 12.271-22.553 19.306-49.037 30.023-77.969 35.37-18.765 3.468-37.72 4.144-56.691 3.562-6.388-.195-12.85-1.963-19.031-3.829-7.653-2.312-8.643-5.862-3.206-11.499 4.488-4.653 9.309-9.295 14.776-12.647 37.464-22.972 77.985-34.47 122.179-31.096 10.698.817 21.223 2.778 32.316 7.868zm-1447.692.474c12.255-5.743 24.341-7.347 36.462-7.841 35.123-1.43 68.759 5.187 100.614 20.186 10.826 5.097 20.878 11.469 28.838 20.615 7.834 9.003 6.528 13.187-4.948 16.404-1.36.38-2.736.849-4.129.952-39.868 2.959-78.696-.552-115.033-18.942-14.482-7.331-27.965-16.137-39.235-27.998-.749-.79-1.333-1.738-2.569-3.376zm-38.044-89.048c11.096-3.895 21.456-4.562 31.917-3.814 44.882 3.207 83.907 20.608 118.016 49.459 4.24 3.588 7.854 8.223 10.783 12.973 3.548 5.754 2.227 8.603-4.385 10.686-3.728 1.174-7.817 2.017-11.682 1.819-45.428-2.32-86.847-15.705-122.353-45.048-8.569-7.085-16.252-14.935-22.296-26.075zm1523.645 1.924c-7.157 7.58-13.732 15.83-21.571 22.624-34.834 30.183-76.129 43.979-121.631 46.237-4.988.248-10.188-.811-15.064-2.111-5.031-1.343-6.418-4.69-3.523-9.07 3.402-5.149 7.184-10.383 11.874-14.292 29.288-24.407 62.082-41.948 100.34-46.847 13.657-1.748 27.687-.692 41.545-.68 2.374.001 4.747 1.191 7.12 1.831l.91 2.308zm26.795-96.807c-2.27 4.594-3.955 8.704-6.222 12.464-7.393 12.258-16.874 22.795-27.88 31.864-27.87 22.972-59.377 38.377-95.055 44.853-9.989 1.813-15.595.793-23.5-4.517 4.004-6.325 7.271-13.393 12.212-18.979 29.388-33.208 65.024-56.273 109.134-64.618 8.562-1.62 17.441-1.593 26.184-2.196 1.275-.088 2.601.547 5.127 1.129zm-1428.715 86.94c-8.925 4.992-18.102 2.758-26.729.762-42.28-9.785-78.881-29.598-107.476-62.891-7.84-9.129-11.681-16.043-14.02-24.833 7.781-2.224 15.614-1.681 23.342-.443 38.676 6.199 71.92 23.538 100.572 49.907 6.658 6.128 12.854 12.807 18.82 19.62 4.36 4.978 7.102 10.847 5.491 17.878zm-162.661-181.17c12.657.408 23.543 3.178 34.201 7.177 40.269 15.106 70.885 41.972 94.14 77.624 3.036 4.653 4.875 10.221 6.555 15.588 1.523 4.867-.243 7.33-5.262 7.141-5.892-.222-12.105-.507-17.558-2.482-41.941-15.198-76.935-39.707-101.152-77.909-4.053-6.393-6.737-13.672-9.838-20.638-.757-1.7-.662-3.779-1.086-6.501zm1605.353 1.008c-2.83 11.717-7.725 21.236-13.725 30.174-16.109 23.993-37.291 42.679-62.192 56.943-11.503 6.589-23.853 11.834-36.183 16.785-5.332 2.142-11.565 2.551-17.42 2.723-4.906.144-6.48-2.072-6.079-7.102.218-2.736.896-5.732 2.307-8.034 24.082-39.288 55.618-70.099 99.868-85.791 8.711-3.089 18.149-4.151 27.284-5.995 1.576-.318 3.306.133 6.14.297zM-805 2300.031c11.429 3.224 21.306 6.574 30.542 11.47 39.397 20.885 66.827 52.857 85.128 93.029 1.809 3.968 2.413 8.723 2.561 13.147.182 5.472-1.229 6.788-6.519 6.381-4.154-.32-8.606-1.026-12.266-2.872-41.825-21.096-74.817-50.993-93.266-95.053-2.076-4.956-3.856-10.078-5.242-15.266-.822-3.074-.6-6.425-.938-10.836zm1610.507.917c.809 10.037-1.085 17.611-4.333 24.964-12.885 29.171-31.912 53.62-57.446 72.631-11.104 8.267-23.23 15.208-35.175 22.272-5.967 3.53-12.639 4.908-20.586.978.688-4.452.484-9.478 2.264-13.661 20.017-47.07 51.363-83.258 99.972-102.471 4.637-1.833 9.552-2.963 15.304-4.713zm-102.369 41.757c-5.731-6.495-4.812-12.399-3.439-18.228 5.467-23.224 15.848-44.174 29.744-63.452 12.856-17.833 27.437-33.93 46.333-45.637 7.197-4.459 14.71-8.198 23.682-10.98.925 5.807.496 10.728-.525 15.666-8.279 40.061-28.423 73.072-59.438 99.51-6.456 5.503-13.258 10.685-20.35 15.326-4.865 3.182-10.508 5.174-16.007 7.795zm-1500.75-137.826c8.257 1.746 15.158 5.547 21.858 9.649 16.628 10.182 30.783 23.182 42.462 38.755 15.065 20.088 27.596 41.598 33.857 66.148 1.634 6.407 1.451 13.277 2.09 19.816-7.013 3.071-12.259 1.274-17.079-1.938-36.699-24.447-64.504-56.048-77.915-98.772-2.855-9.095-3.968-18.744-5.722-28.169-.293-1.574.246-3.303.449-5.489zm15.832-94.428c11.293 4.382 19.174 10.259 26.344 17.158 28.262 27.195 45.245 60.579 53.474 98.599 1.483 6.849 1.829 13.992 2.167 21.025.204 4.236-1.032 8.349-5.336 12.214-5.757-3.848-12.242-7.016-17.273-11.735-29.486-27.661-49.883-60.688-57.59-100.839-1.225-6.385-2.222-12.864-2.605-19.344-.312-5.239.458-10.542.819-17.078zm1564.722 1.212c0 7.536.816 15.177-.139 22.591-4.794 37.254-19.525 70.354-43.616 99.091-5.583 6.657-12.533 12.318-19.468 17.637-4.1 3.146-9.403 4.724-13.804 6.833-5.315-4.616-5.755-9.767-5.013-14.859 6.766-46.365 24.565-87.21 60.521-118.648 5.903-5.162 12.729-9.269 19.128-13.863.798.404 1.595.811 2.391 1.218zm-24.977-104.394c3.892 12.822 5.004 23.981 4.288 35.328-2.55 40.355-17.065 76.12-42.103 107.64-3.612 4.548-8.424 8.384-13.299 11.613-3.952 2.618-6.295 1.672-8.082-2.681-1.578-3.847-2.969-8.177-2.854-12.249.806-28.57 5.045-56.485 17.273-82.707 8.24-17.669 19.148-33.476 33.026-47.168 3.182-3.136 6.877-5.752 11.751-9.776zm-1455.964 156.25c-9.531-1.162-14.989-6.392-19.837-12.432-16.352-20.376-28.395-43.045-35.651-68.165-4.825-16.701-7.875-33.705-7.007-51.187.377-7.597.85-15.238 4.589-23.125 5.279 2.192 9.077 5.846 12.716 9.637 23.629 24.612 38.974 53.642 44.706 87.271 2.322 13.623 2.892 27.598 3.425 41.445.21 5.412-1.869 10.911-2.941 16.556zm-17.073-245.675c11.336 9.826 18.773 20.493 24.594 32.218 17.553 35.345 22.947 72.705 17.505 111.663-.574 4.111-2.111 8.266-4.038 11.965-2.336 4.484-5.076 5.163-8.99 2.12-3.51-2.729-6.875-6.061-9.219-9.806-15.283-24.41-24.307-51.051-27.813-79.641-2.303-18.782-1.907-37.354 3.26-55.647 1.13-4.002 2.843-7.839 4.701-12.872zm1430.7 1.486c5.005 7.165 6.699 14.853 7.974 22.616 4.068 24.775 1.459 49.18-4.515 73.345-3.899 15.774-9.187 31.063-18.323 44.626-3.6 5.346-8.055 10.267-12.797 14.649-4.523 4.182-8.262 3.215-10.377-2.676-1.991-5.549-3.426-11.481-3.943-17.347-3.17-36.02 1.543-70.871 18.105-103.324 5.09-9.975 12.638-18.707 19.199-27.908 1.066-1.493 2.861-2.467 4.677-3.981zm-1378.638-84.038c3.763 4.982 6.697 8.34 9.044 12.066 10.303 16.36 15.454 34.557 18.224 53.472 3.69 25.195 2.897 50.266-3.314 75.03-2.125 8.475-4.203 17.139-13.279 22.416-4.341-3.66-8.002-7.841-10.308-13.033-11.519-25.953-18.113-53.051-17.52-81.548.356-17.051 3.227-33.83 8.885-49.979 2.02-5.76 4.985-11.19 8.268-18.424zm1326.653.133c5.161 7.669 8.356 14.484 10.554 21.785 11.688 38.853 9.323 77.186-4.464 115.037-2.127 5.841-4.523 11.619-7.305 17.173-1.891 3.775-4.57 7.795-9.442 7.458-4.904-.34-7.236-4.69-8.201-8.753-3.198-13.469-6.937-26.947-8.472-40.645-3.708-33.088 1.292-64.994 16.587-94.875 2.893-5.652 6.733-10.823 10.743-17.18zm-61.918-79.138c3.209 4.229 5.555 6.98 7.531 9.976 12.674 19.216 18.098 40.879 20.411 63.361 2.399 23.309 1.033 46.48-5.138 69.211-1.864 6.868-3.991 13.668-10.915 17.911-5.4-1.276-8.497-5.229-10.659-9.966-13.927-30.496-21.032-62.38-17.285-95.924 1.406-12.587 4.862-25.002 8.136-37.295 1.48-5.559 4.798-10.627 7.919-17.274zm-72-73.002c7.767 6.128 13.506 13.171 18.04 21.018 21.667 37.481 28.748 77.782 22.65 120.523-.88 6.171-3.594 11.236-9.651 15.761-3.979-4.349-8.712-8.154-11.716-13.025-19.332-31.365-30.262-65.263-28.699-102.469.617-14.694 2.955-32.669 9.376-41.808zm-1088.506 157.566c-5.957-3.592-8.626-7.722-9.277-12.577-7.076-52.812.767-101.811 37.299-143.295.537-.61 1.323-1.002 2.501-1.87 1.046 1.729 2.455 3.188 2.875 4.893 2.027 8.235 4.566 16.446 5.51 24.826 4.618 41.034-5.292 78.846-26.782 113.751-3.189 5.182-7.932 9.408-12.126 14.272zm-42.61-84.233c2.902 4.963 5.099 8.173 6.751 11.642 5.55 11.644 8.421 24.071 9.669 36.824 2.904 29.663 1.405 58.918-9.541 87.06-3.61 9.283-8.272 17.992-16.772 24.648-5.525-2.38-8.252-6.939-9.509-12.201-2.366-9.906-4.678-19.867-6.207-29.928-5.202-34.242-.762-67.251 14.062-98.64 2.956-6.259 7.077-11.967 11.547-19.405zm1048.789-129.677c9.396 4.785 15.859 11.911 21.726 19.536 17.777 23.104 29.172 49.243 34.557 77.743 2.079 11.002 1.802 22.499 2.008 33.782.104 5.662-1.679 11.133-5.625 15.722-7.247-.204-11.36-5.069-15.268-9.813-10.68-12.965-19.561-27.102-26.483-42.433-9.318-20.634-14.598-42.252-15.687-64.872-.61-12.682.713-21.065 4.772-29.665zm-945.473 147.345c-5.9-3.888-6.584-9.184-6.505-14.124.754-47.107 12.921-90.037 46.78-124.743 3.303-3.386 7.152-6.24 11.996-10.419 1.271 4.443 2.419 7.488 2.996 10.638 3.334 18.21.775 36.111-3.374 53.839-4.875 20.824-12.527 40.598-24.579 58.361-4.414 6.506-9.745 12.498-15.304 18.08-3.452 3.466-8.118 5.723-12.01 8.368zm145.546-71.827l6.035-4.19.779 1.485c-2.328.844-4.656 1.689-6.995 2.525-.01-.008.181.18.181.18z"/></svg>